<svg width="48" height="48" viewBox="0 0 48 48" fill="none" xmlns="http://www.w3.org/2000/svg">
<path opacity="0.1" d="M44 24C44 35.0457 35.0457 44 24 44C12.9543 44 4 35.0457 4 24C4 12.9543 12.9543 4 24 4C35.0457 4 44 12.9543 44 24Z" fill="#FF5001"/>
<path d="M23.5102 11.9972V8.47668C23.5102 8.21358 23.7238 8 23.9869 8C24.25 8 24.4636 8.21358 24.4636 8.47668V11.9978C24.4636 12.2609 24.25 12.4745 23.9869 12.4745C23.7238 12.4745 23.5102 12.2609 23.5102 11.9972ZM31.2874 15.4986C31.1013 15.3125 31.1007 15.0106 31.2874 14.8245L33.777 12.3337C33.9632 12.1475 34.265 12.1475 34.4512 12.3337C34.6373 12.5198 34.6379 12.8217 34.4512 13.0078L31.9616 15.4986C31.8685 15.5917 31.7462 15.6382 31.6245 15.6382C31.5022 15.6382 31.3805 15.5917 31.2874 15.4986ZM13.525 13.0078C13.3388 12.8217 13.3388 12.5198 13.525 12.3337C13.7111 12.1475 14.0136 12.1475 14.1991 12.3337L16.6887 14.8245C16.8749 15.0106 16.8749 15.3125 16.6887 15.4986C16.5957 15.5917 16.4734 15.6382 16.3516 15.6382C16.2293 15.6382 16.1076 15.5917 16.0146 15.4986L13.525 13.0078ZM13.1891 23.2741H9.66858C9.40488 23.2741 9.19189 23.0605 9.19189 22.7974C9.19189 22.5343 9.40548 22.3207 9.66858 22.3207H13.1897C13.4534 22.3207 13.6664 22.5343 13.6664 22.7974C13.6664 23.0605 13.4528 23.2741 13.1891 23.2741ZM38.7849 22.7968C38.7849 23.0605 38.5713 23.2735 38.3082 23.2735H34.7871C34.5234 23.2735 34.3104 23.0599 34.3104 22.7968C34.3104 22.5337 34.524 22.3201 34.7871 22.3201H38.3082C38.5713 22.3201 38.7849 22.5337 38.7849 22.7968Z" fill="#FF5001"/>
<path d="M23.7507 39.7681H24.9642C26.5006 39.7681 27.8055 38.7355 28.2212 37.3293H20.493C20.9094 38.7355 22.2143 39.7681 23.7507 39.7681ZM20.3556 34.8076V36.2618H28.3593V34.8076C28.3593 34.6563 28.3632 34.5057 28.3744 34.3584H20.3405C20.3503 34.5051 20.3556 34.6563 20.3556 34.8076Z" fill="#013088"/>
<path d="M24.3522 15.8311C28.9305 15.8311 32.6412 19.543 32.6412 24.1201L32.6315 24.4395C32.5402 26.0336 31.7871 27.5735 30.9977 28.7666C30.581 29.3964 30.164 29.9154 29.8512 30.2764C29.695 30.4566 29.5648 30.5971 29.4752 30.6914C29.4304 30.7385 29.3957 30.7745 29.3727 30.7979L29.3405 30.8301L29.3239 30.8457L29.3092 30.8633C28.8041 31.4542 28.4286 32.0944 28.1862 32.7871H20.5182C20.3108 32.1967 20.0087 31.6439 19.61 31.127L19.3961 30.8633C18.4894 29.8016 17.6833 29.0246 17.0641 28.0186C16.4681 27.0501 16.0631 25.8822 16.0631 24.1201C16.0631 19.543 19.775 15.8311 24.3522 15.8311Z" stroke="#013088"/>
<g clip-path="url(#clip0_8901_583)">
<path d="M23.8996 25.0791C24.1194 24.9418 24.3184 24.7743 24.4909 24.5823L25.1127 24.9414L25.6789 23.9607L25.0583 23.6024C25.1372 23.3615 25.1836 23.106 25.1923 22.8412L25.8983 22.7167L25.7016 21.6015L24.9958 21.726C24.8982 21.4842 24.7673 21.2594 24.6086 21.0574L25.07 20.5076L24.2026 19.7797L23.7416 20.3291C23.5164 20.2084 23.2726 20.1182 23.0156 20.0641V19.3477H21.8832V20.0641C21.6262 20.1182 21.3823 20.2084 21.1571 20.3291L20.6961 19.7797L19.8287 20.5076L20.2901 21.0574C20.1314 21.2595 20.0005 21.4843 19.9029 21.726L19.1971 21.6015L19.0005 22.7167L19.7064 22.8412C19.7151 23.1061 19.7615 23.3615 19.8404 23.6025L19.2198 23.9608L19.786 24.9414L20.4078 24.5825C20.5803 24.7744 20.7793 24.9419 20.9991 25.0792L20.7536 25.7535L21.8178 26.1407L22.0629 25.4673C22.1892 25.4852 22.3182 25.4947 22.4494 25.4947C22.5806 25.4947 22.7096 25.4852 22.8359 25.4673L23.081 26.1408L24.1451 25.7534L23.8996 25.0791ZM22.4493 24.196C21.652 24.196 21.0032 23.5473 21.0032 22.7499C21.0032 21.9526 21.652 21.3038 22.4493 21.3038C23.2467 21.3038 23.8954 21.9526 23.8954 22.7499C23.8954 23.5473 23.2467 24.196 22.4493 24.196Z" fill="#013088"/>
<path d="M28.7669 25.9294L28.2788 26.0873C28.1857 25.9255 28.0707 25.779 27.9382 25.6515L28.211 25.2161L27.5241 24.7858L27.2515 25.2208C27.08 25.1575 26.8982 25.1176 26.7106 25.1047L26.6398 24.5967L25.837 24.7086L25.9078 25.2166C25.7309 25.2803 25.5669 25.3684 25.4192 25.4762L25.0381 25.1322L24.495 25.7339L24.8764 26.0783C24.7839 26.2372 24.7133 26.4095 24.6681 26.5906L24.1553 26.5721L24.126 27.3821L24.6387 27.4007C24.6711 27.5876 24.7293 27.764 24.8091 27.9271L24.4045 28.2425L24.9027 28.8818L25.3081 28.5659C25.4494 28.6849 25.6071 28.7839 25.7764 28.8596L25.6689 29.362L26.4617 29.5314L26.569 29.0297C26.6603 29.03 26.7527 29.0238 26.8456 29.0109C26.9387 28.9979 27.0293 28.9784 27.117 28.9533L27.3574 29.4066L28.0735 29.0268L27.8328 28.573C27.9752 28.4539 28.0996 28.3154 28.203 28.1624L28.6793 28.3555L28.9838 27.6043L28.5085 27.4115C28.5405 27.233 28.5482 27.0472 28.5283 26.8585L29.0166 26.7005L28.7669 25.9294ZM26.7175 28.0902C26.152 28.1689 25.628 27.7731 25.5493 27.2077C25.4704 26.6424 25.8663 26.1183 26.4317 26.0396C26.9971 25.9607 27.521 26.3566 27.5999 26.922C27.6786 27.4873 27.2828 28.0113 26.7175 28.0902Z" fill="#013088"/>
<path d="M29.8596 23.1204L29.8786 22.4807L29.4738 22.4687C29.4484 22.3277 29.4031 22.1881 29.3365 22.0539L29.6544 21.8027L29.2578 21.3007L28.94 21.5517C28.8266 21.4576 28.7012 21.3808 28.5681 21.3228L28.6503 20.9257L28.0238 20.7959L27.9414 21.1928C27.797 21.193 27.6517 21.2135 27.5092 21.2554L27.3173 20.8989L26.7538 21.2024L26.9458 21.5589C26.8325 21.6546 26.7352 21.765 26.6555 21.8853L26.279 21.7354L26.0424 22.33L26.4192 22.4801C26.3944 22.6231 26.3896 22.7699 26.4059 22.9164L26.0212 23.0436L26.2221 23.6512L26.6067 23.524C26.682 23.6535 26.7736 23.7681 26.8774 23.8669L26.6647 24.2115L27.2092 24.5477L27.4224 24.2025C27.5596 24.2517 27.7036 24.2817 27.8497 24.2912L27.9082 24.6925L28.5414 24.6L28.4831 24.1992C28.5507 24.1743 28.6174 24.1444 28.6827 24.1092C28.748 24.0741 28.8097 24.0348 28.8676 23.9921L29.1702 24.2614L29.5958 23.7836L29.293 23.514C29.3656 23.3867 29.4196 23.25 29.4541 23.1083L29.8596 23.1204ZM28.3348 23.4631C27.9379 23.6768 27.4412 23.5278 27.2277 23.1311C27.0139 22.7343 27.1629 22.2376 27.5598 22.024C27.9564 21.8103 28.4531 21.9593 28.6668 22.3561C28.8803 22.7529 28.7315 23.2494 28.3348 23.4631Z" fill="#013088"/>
</g>
<defs>
<clipPath id="clip0_8901_583">
<rect width="10.879" height="10.879" fill="white" transform="translate(19.0005 19)"/>
</clipPath>
</defs>
</svg>
