<svg width="48" height="48" viewBox="0 0 48 48" fill="none" xmlns="http://www.w3.org/2000/svg">
<circle opacity="0.1" cx="19" cy="19" r="14" fill="#FF5001"/>
<path opacity="0.1" d="M42.7764 43H16.2236C15.5479 43 15 42.4352 15 41.7387V16.2613C15 15.5648 15.5479 15 16.2236 15H42.7764C43.4521 15 44 15.5648 44 16.2613V41.7387C44 42.4352 43.4521 43 42.7764 43Z" fill="#013088"/>
<path d="M37.5368 21.5205H21.6235C20.9275 21.5205 20.3633 20.9563 20.3633 20.2603C20.3633 19.5643 20.9275 19 21.6235 19H37.5368C38.2328 19 38.797 19.5643 38.797 20.2603C38.797 20.9563 38.2328 21.5205 37.5368 21.5205Z" fill="#013088"/>
<path d="M22.5507 22.656C23.8364 22.656 24.8787 21.6137 24.8787 20.328C24.8787 19.0423 23.8364 18 22.5507 18C21.2649 18 20.2227 19.0423 20.2227 20.328C20.2227 21.6137 21.2649 22.656 22.5507 22.656Z" fill="#FF5001"/>
<path d="M37.529 29.5205H21.6157C20.9197 29.5205 20.3555 28.9563 20.3555 28.2603C20.3555 27.5643 20.9197 27 21.6157 27H37.529C38.225 27 38.7892 27.5643 38.7892 28.2603C38.7892 28.9563 38.225 29.5205 37.529 29.5205Z" fill="#013088"/>
<path d="M31.6719 27.9784C31.2451 27.4876 30.6236 27.1709 29.9219 27.1709C29.2204 27.1709 28.5989 27.4876 28.1719 27.9784H31.6719Z" fill="#FF5001"/>
<path d="M29.9218 30.656C31.2075 30.656 32.2498 29.6137 32.2498 28.328C32.2498 27.0423 31.2075 26 29.9218 26C28.636 26 27.5938 27.0423 27.5938 28.328C27.5938 29.6137 28.636 30.656 29.9218 30.656Z" fill="#FF5001"/>
<path d="M21.4829 37.5205H37.3962C38.0922 37.5205 38.6564 36.9563 38.6564 36.2603C38.6564 35.5643 38.0922 35 37.3962 35H21.4829C20.7869 35 20.2227 35.5643 20.2227 36.2603C20.2227 36.9563 20.7869 37.5205 21.4829 37.5205Z" fill="#013088"/>
<path d="M36.4686 38.656C37.7543 38.656 38.7966 37.6137 38.7966 36.328C38.7966 35.0423 37.7543 34 36.4686 34C35.1829 34 34.1406 35.0423 34.1406 36.328C34.1406 37.6137 35.1829 38.656 36.4686 38.656Z" fill="#FF5001"/>
</svg>
