<svg width="40" height="40" viewBox="0 0 40 40" fill="none" xmlns="http://www.w3.org/2000/svg">
<path opacity="0.1" d="M20.0007 34.1663C27.8247 34.1663 34.1673 27.8237 34.1673 19.9997C34.1673 12.1756 27.8247 5.83301 20.0007 5.83301C12.1766 5.83301 5.83398 12.1756 5.83398 19.9997C5.83398 27.8237 12.1766 34.1663 20.0007 34.1663Z" fill="#013088"/>
<path d="M19.2041 21.478C19.5424 21.2666 19.8489 21.0087 20.1145 20.7131L21.0719 21.266L21.9436 19.7561L20.9881 19.2044C21.1096 18.8335 21.1811 18.4401 21.1945 18.0323L22.2815 17.8406L21.9786 16.1236L20.8918 16.3153C20.7416 15.943 20.5401 15.5969 20.2957 15.2858L21.0062 14.4392L19.6706 13.3186L18.9607 14.1644C18.614 13.9787 18.2386 13.8398 17.8429 13.7564V12.6533H16.0994V13.7564C15.7037 13.8398 15.3282 13.9787 14.9815 14.1644L14.2717 13.3186L12.9361 14.4393L13.6464 15.2858C13.4021 15.5969 13.2006 15.9431 13.0504 16.3153L11.9636 16.1236L11.6609 17.8407L12.7477 18.0323C12.7611 18.4402 12.8326 18.8335 12.9541 19.2045L11.9986 19.7561L12.8703 21.2661L13.8278 20.7133C14.0933 21.0088 14.3997 21.2667 14.7382 21.4781L14.3602 22.5163L15.9986 23.1126L16.376 22.0757C16.5705 22.1033 16.7692 22.1179 16.9711 22.1179C17.1731 22.1179 17.3718 22.1033 17.5663 22.0757L17.9437 23.1126L19.582 22.5163L19.2041 21.478ZM16.9711 20.1184C15.7433 20.1184 14.7445 19.1196 14.7445 17.8918C14.7445 16.6641 15.7433 15.6652 16.9711 15.6652C18.1988 15.6652 19.1976 16.6641 19.1976 17.8918C19.1976 19.1196 18.1988 20.1184 16.9711 20.1184Z" fill="#013088"/>
<path d="M26.6939 22.7873L25.9423 23.0304C25.799 22.7813 25.6219 22.5558 25.4179 22.3594L25.8379 21.6891L24.7803 21.0265L24.3605 21.6963C24.0965 21.5988 23.8166 21.5374 23.5277 21.5175L23.4188 20.7354L22.1827 20.9077L22.2916 21.6898C22.0193 21.7879 21.7668 21.9236 21.5394 22.0895L20.9526 21.5599L20.1164 22.4864L20.7036 23.0166C20.5612 23.2612 20.4526 23.5265 20.3829 23.8054L19.5934 23.7768L19.5482 25.024L20.3377 25.0526C20.3875 25.3405 20.4771 25.6121 20.6 25.8632L19.977 26.3488L20.7442 27.3331L21.3684 26.8467C21.5858 27.0299 21.8287 27.1824 22.0894 27.299L21.9239 28.0725L23.1445 28.3333L23.3097 27.5609C23.4503 27.5613 23.5925 27.5518 23.7357 27.5319C23.8789 27.5119 24.0184 27.4819 24.1534 27.4433L24.5236 28.1411L25.6262 27.5564L25.2557 26.8577C25.4748 26.6743 25.6664 26.4611 25.8256 26.2254L26.5589 26.5228L27.0278 25.3662L26.2959 25.0694C26.3453 24.7945 26.3571 24.5085 26.3265 24.2179L27.0782 23.9746L26.6939 22.7873ZM23.5383 26.1143C22.6678 26.2355 21.8609 25.626 21.7397 24.7556C21.6182 23.8851 22.2278 23.0781 23.0983 22.9569C23.9688 22.8355 24.7755 23.4451 24.897 24.3157C25.0181 25.1861 24.4088 25.9928 23.5383 26.1143Z" fill="#013088"/>
<path d="M28.378 18.4618L28.4073 17.4769L27.784 17.4584C27.7449 17.2413 27.6751 17.0264 27.5727 16.8197L28.0621 16.433L27.4515 15.6601L26.9621 16.0466C26.7875 15.9016 26.5945 15.7833 26.3895 15.6941L26.516 15.0826L25.5514 14.8828L25.4246 15.4939C25.2023 15.4942 24.9785 15.5257 24.7592 15.5903L24.4636 15.0414L23.5961 15.5086L23.8916 16.0576C23.7172 16.205 23.5675 16.3749 23.4447 16.5601L22.8651 16.3294L22.5007 17.2448L23.0809 17.4759C23.0427 17.6962 23.0353 17.9221 23.0603 18.1477L22.4681 18.3436L22.7773 19.2791L23.3695 19.0833C23.4855 19.2827 23.6265 19.459 23.7864 19.6112L23.4589 20.1418L24.2972 20.6595L24.6254 20.1279C24.8368 20.2037 25.0584 20.2499 25.2834 20.2644L25.3734 20.8824L26.3485 20.74L26.2586 20.1228C26.3627 20.0845 26.4654 20.0385 26.5659 19.9843C26.6665 19.9303 26.7615 19.8697 26.8507 19.804L27.3165 20.2187L27.9718 19.483L27.5057 19.0678C27.6175 18.8719 27.7007 18.6614 27.7538 18.4432L28.378 18.4618ZM26.0303 18.9895C25.4192 19.3185 24.6545 19.0892 24.3257 18.4783C23.9966 17.8674 24.2259 17.1026 24.837 16.7737C25.4478 16.4447 26.2124 16.6742 26.5415 17.2851C26.8703 17.896 26.6411 18.6605 26.0303 18.9895Z" fill="#013088"/>
<path d="M5.29041 19.9994C5.29041 26.2601 9.2052 31.603 14.7189 33.7236C14.7671 33.5936 14.7954 33.4526 14.7954 33.3024C14.7954 32.8353 14.5246 32.4142 14.1042 32.2107C14.0671 32.1928 14.031 32.1734 13.9942 32.1551C13.9269 32.1217 13.86 32.088 13.7933 32.0536C13.7164 32.0138 13.6402 31.9734 13.5642 31.9324C13.4981 31.8967 13.4325 31.8607 13.3671 31.8238C13.2919 31.7815 13.2175 31.7384 13.1433 31.6946C13.0787 31.6567 13.0146 31.6186 12.9506 31.5799C12.8769 31.5349 12.8037 31.4886 12.7308 31.4424C12.6683 31.4026 12.6056 31.3628 12.5439 31.3219C12.4714 31.274 12.3998 31.2251 12.3281 31.1757C12.2675 31.134 12.2069 31.0926 12.1469 31.0499C12.0754 30.999 12.0052 30.9469 11.9348 30.8946C11.8764 30.8515 11.8179 30.8086 11.7604 30.7644C11.6896 30.7103 11.62 30.6544 11.5504 30.5988C11.495 30.5546 11.4392 30.5111 11.3846 30.4661C11.3139 30.408 11.2448 30.348 11.1752 30.2884C11.1233 30.2438 11.0708 30.2001 11.0196 30.1546C10.9481 30.0915 10.8781 30.0263 10.8079 29.9617C10.7606 29.918 10.7125 29.8753 10.6658 29.8309C10.5894 29.7584 10.5148 29.6838 10.4402 29.6096C10.4017 29.5713 10.3621 29.5338 10.3239 29.4951C10.216 29.3853 10.1102 29.2736 10.0062 29.1603C10.0023 29.1559 9.99791 29.1517 9.99395 29.1474C9.88603 29.0296 9.78041 28.9096 9.67665 28.7882C9.64207 28.7478 9.60916 28.7059 9.57499 28.6651C9.50686 28.5832 9.43832 28.5015 9.37207 28.4182C9.33207 28.3678 9.29374 28.3163 9.25436 28.2655C9.19582 28.1894 9.13686 28.1138 9.07978 28.0367C9.03957 27.9821 9.00082 27.9265 8.96124 27.8713C8.90749 27.7963 8.85353 27.7213 8.80124 27.6451C8.76124 27.5867 8.72291 27.5276 8.68374 27.4686C8.63436 27.394 8.58457 27.3194 8.53665 27.2438C8.4977 27.1826 8.4602 27.1205 8.42228 27.0586C8.37624 26.9834 8.3302 26.9084 8.28561 26.8324C8.24832 26.7688 8.21249 26.7046 8.17624 26.6405C8.13332 26.5646 8.09061 26.4886 8.04916 26.4117C8.01374 26.3461 7.97957 26.2799 7.9452 26.2136C7.90541 26.1365 7.86561 26.0594 7.82728 25.9815C7.79416 25.9144 7.76186 25.8469 7.72999 25.7792C7.6927 25.7007 7.65603 25.6217 7.62041 25.5424C7.58957 25.4738 7.55957 25.4051 7.52978 25.3359C7.4954 25.2561 7.46186 25.1759 7.42895 25.0955C7.40041 25.0255 7.37249 24.9553 7.3452 24.8846C7.31374 24.8032 7.28291 24.7213 7.25291 24.6392C7.22707 24.5682 7.20145 24.4971 7.17665 24.4257C7.1479 24.343 7.12041 24.2596 7.09332 24.1761C7.06999 24.104 7.04666 24.0317 7.02436 23.959C6.99853 23.8746 6.97395 23.7896 6.94978 23.7046C6.92895 23.6317 6.90832 23.559 6.88874 23.4857C6.86582 23.3992 6.84416 23.3121 6.82291 23.2253C6.80499 23.1521 6.78686 23.0792 6.7702 23.0059C6.74999 22.9169 6.73166 22.8274 6.71311 22.7378C6.69811 22.6651 6.6827 22.5926 6.66895 22.5192C6.65166 22.4278 6.63645 22.3357 6.62103 22.2436C6.60895 22.1711 6.59603 22.099 6.5852 22.0261C6.57103 21.9315 6.55916 21.8363 6.54686 21.7411C6.5377 21.6699 6.52749 21.5988 6.51936 21.5274C6.50811 21.4276 6.49957 21.3269 6.4904 21.2265C6.48436 21.1588 6.47686 21.0913 6.47186 21.0234C6.46332 20.9109 6.45811 20.7976 6.45228 20.6844C6.44936 20.6278 6.4452 20.5713 6.44291 20.5144C6.43645 20.3438 6.43311 20.1726 6.43311 20.0005C6.43311 13.4728 11.0698 8.0084 17.2225 6.7259V5.56152C10.4279 6.85673 5.29041 12.8267 5.29041 19.9994Z" fill="#013088"/>
<path d="M34.6963 19.9996C34.6963 13.7389 30.7813 8.39602 25.2677 6.27539C25.2196 6.40539 25.1913 6.54622 25.1913 6.69664C25.1913 7.16372 25.4621 7.58477 25.8825 7.78831C25.9198 7.80622 25.9561 7.82602 25.9929 7.84435C26.0598 7.87747 26.1263 7.91122 26.1925 7.94539C26.2698 7.98539 26.3467 8.02602 26.4229 8.06727C26.4886 8.10289 26.554 8.13851 26.619 8.17518C26.6944 8.21768 26.7694 8.26102 26.844 8.30497C26.9082 8.34268 26.9721 8.3806 27.0354 8.41914C27.1096 8.46435 27.1832 8.51081 27.2563 8.55747C27.3186 8.59706 27.3807 8.63664 27.4421 8.67727C27.515 8.72539 27.5871 8.77477 27.6592 8.82435C27.7194 8.86581 27.7798 8.90685 27.8392 8.94935C27.9111 9.0006 27.9817 9.05289 28.0525 9.10539C28.1104 9.14831 28.1686 9.19081 28.2257 9.23456C28.2967 9.28893 28.3665 9.34497 28.4365 9.40081C28.4917 9.44477 28.5473 9.48831 28.6017 9.53331C28.6727 9.59185 28.7423 9.65185 28.8121 9.71185C28.8636 9.75602 28.9157 9.79956 28.9667 9.84456C29.0388 9.90831 29.1094 9.97393 29.1802 10.0393C29.2269 10.0825 29.2744 10.1248 29.3204 10.1683C29.3977 10.2418 29.4734 10.3171 29.549 10.3925C29.5867 10.43 29.6252 10.4664 29.6625 10.5043C29.7729 10.6166 29.8813 10.7308 29.9877 10.8468C29.9894 10.8485 29.9911 10.8502 29.9927 10.8521C30.1009 10.97 30.2067 11.09 30.3104 11.2116C30.3442 11.2512 30.3765 11.2918 30.4098 11.3318C30.4788 11.4146 30.5479 11.4973 30.615 11.5816C30.6548 11.6316 30.6929 11.6829 30.7319 11.7335C30.7909 11.8098 30.8498 11.8856 30.9071 11.9631C30.9475 12.0179 30.9863 12.0737 31.0259 12.1289C31.0796 12.2039 31.1334 12.2785 31.1857 12.3546C31.2254 12.4127 31.264 12.4718 31.3029 12.5306C31.3527 12.6056 31.4025 12.6806 31.4509 12.7564C31.4894 12.8173 31.5265 12.8787 31.5642 12.9402C31.6104 13.0158 31.6567 13.0912 31.7017 13.1677C31.7388 13.2308 31.7746 13.2948 31.8107 13.3587C31.8536 13.435 31.8965 13.5112 31.9382 13.5883C31.9734 13.6537 32.0075 13.7198 32.0417 13.7858C32.0817 13.8631 32.1215 13.9404 32.16 14.0185C32.1932 14.0854 32.2252 14.1529 32.2571 14.2204C32.2944 14.2991 32.3313 14.3783 32.3671 14.4579C32.3977 14.5262 32.4277 14.595 32.4575 14.6639C32.4919 14.7439 32.5257 14.8241 32.5584 14.905C32.5869 14.975 32.6146 15.045 32.6421 15.1156C32.6738 15.1971 32.7044 15.2789 32.7344 15.3612C32.7602 15.4321 32.7859 15.5031 32.8104 15.5746C32.8392 15.6575 32.8669 15.7408 32.894 15.8246C32.9173 15.8966 32.9404 15.9685 32.9627 16.041C32.9886 16.1256 33.0132 16.2106 33.0373 16.2958C33.0579 16.3685 33.0788 16.4412 33.0982 16.5146C33.1211 16.601 33.1425 16.6881 33.164 16.7752C33.1819 16.8483 33.2 16.9212 33.2167 16.9946C33.2369 17.0835 33.2552 17.1731 33.2738 17.2627C33.2888 17.3354 33.3042 17.4079 33.3179 17.4812C33.3352 17.5727 33.3504 17.6648 33.3659 17.7568C33.3779 17.8293 33.3909 17.9014 33.4017 17.9743C33.4159 18.0689 33.4277 18.1641 33.44 18.2593C33.4492 18.3306 33.4594 18.4014 33.4675 18.4731C33.4788 18.5729 33.4873 18.6735 33.4965 18.7739C33.5025 18.8416 33.51 18.9089 33.515 18.9771C33.5234 19.0896 33.5288 19.2031 33.5346 19.3162C33.5375 19.3729 33.5417 19.4289 33.544 19.4858C33.5504 19.6564 33.5538 19.8277 33.5538 19.9998C33.5538 26.5275 28.9171 31.9916 22.7644 33.2744V34.4387C29.5588 33.1423 34.6963 27.1725 34.6963 19.9996Z" fill="#013088"/>
<path d="M15.834 8.83291V3.66644C15.834 3.36992 16.3857 3.22152 16.7082 3.43117L20.6839 6.01441C20.884 6.14442 20.884 6.35507 20.6839 6.48494L16.7082 9.06818C16.3855 9.27783 15.834 9.12943 15.834 8.83291Z" fill="url(#paint0_linear_8940_869)"/>
<path d="M20.3122 5.77274L16.7082 8.11449C16.3855 8.32415 15.834 8.1756 15.834 7.87922V8.83291C15.834 9.12943 16.3855 9.27783 16.7082 9.06818L20.6839 6.48494C20.884 6.35507 20.884 6.14442 20.6839 6.01441L20.3122 5.77274Z" fill="url(#paint1_linear_8940_869)"/>
<path d="M23.334 36.3329V31.1664C23.334 30.8699 22.7823 30.7215 22.4598 30.9312L18.4841 33.5144C18.284 33.6444 18.284 33.8551 18.4841 33.9849L22.4598 36.5682C22.7825 36.7778 23.334 36.6294 23.334 36.3329Z" fill="url(#paint2_linear_8940_869)"/>
<path d="M18.8557 33.2727L22.4598 35.6145C22.7825 35.8241 23.334 35.6756 23.334 35.3792V36.3329C23.334 36.6294 22.7825 36.7778 22.4598 36.5682L18.4841 33.9849C18.284 33.8551 18.284 33.6444 18.4841 33.5144L18.8557 33.2727Z" fill="url(#paint3_linear_8940_869)"/>
<defs>
<linearGradient id="paint0_linear_8940_869" x1="18.334" y1="5.77274" x2="18.334" y2="9.16644" gradientUnits="userSpaceOnUse">
<stop stop-color="#FF7233"/>
<stop offset="1" stop-color="#FF5001"/>
</linearGradient>
<linearGradient id="paint1_linear_8940_869" x1="18.334" y1="5.77274" x2="18.334" y2="9.16644" gradientUnits="userSpaceOnUse">
<stop stop-color="#FF7233"/>
<stop offset="1" stop-color="#FF5001"/>
</linearGradient>
<linearGradient id="paint2_linear_8940_869" x1="20.834" y1="33.2727" x2="20.834" y2="36.6664" gradientUnits="userSpaceOnUse">
<stop stop-color="#FF7233"/>
<stop offset="1" stop-color="#FF5001"/>
</linearGradient>
<linearGradient id="paint3_linear_8940_869" x1="20.834" y1="33.2727" x2="20.834" y2="36.6664" gradientUnits="userSpaceOnUse">
<stop stop-color="#FF7233"/>
<stop offset="1" stop-color="#FF5001"/>
</linearGradient>
</defs>
</svg>
