<svg width="40" height="40" viewBox="0 0 40 40" fill="none" xmlns="http://www.w3.org/2000/svg">
<circle opacity="0.1" cx="16" cy="17" r="14" fill="#FF5001"/>
<path d="M15.6873 8.89059C11.4151 8.89059 7.93731 12.3684 7.93731 16.6406C7.93731 18.4425 8.567 20.1959 9.71496 21.5812C9.85059 21.7411 9.86512 21.9736 9.74887 22.1479L8.47981 24.1484L11.7057 23.4315C11.8172 23.4073 11.9382 23.4218 12.04 23.4751C13.154 24.0709 14.4134 24.3857 15.6825 24.3857C16.3848 24.3857 17.0629 24.284 17.7072 24.1096C17.6636 24.4439 17.6393 24.7829 17.6297 25.1268C17 25.2721 16.3509 25.3545 15.6825 25.3545C14.3165 25.3545 12.9603 25.03 11.7445 24.4148L7.54981 25.3448C7.5159 25.3545 7.48199 25.3545 7.44324 25.3545C7.28824 25.3545 7.13809 25.277 7.04606 25.1462C6.93465 24.9864 6.92981 24.7732 7.03153 24.6086L8.73653 21.9154C7.58372 20.4042 6.95403 18.5442 6.95403 16.6357C6.95403 11.8259 10.8629 7.91699 15.6728 7.91699C20.4826 7.91699 24.0961 11.5546 24.3673 16.1223C24.0428 16.224 23.7279 16.35 23.4179 16.4856C23.3356 12.2812 19.8965 8.88574 15.6776 8.88574L15.6873 8.89059Z" fill="#FF5001"/>
<path d="M19.5625 13.5406C19.5625 13.2464 19.324 13.0078 19.0297 13.0078H12.3453C12.051 13.0078 11.8125 13.2464 11.8125 13.5406C11.8125 13.8349 12.051 14.0734 12.3453 14.0734H19.0297C19.324 14.0734 19.5625 13.8349 19.5625 13.5406Z" fill="#FF5001"/>
<path d="M19.5625 16.4469C19.5625 16.1526 19.324 15.9141 19.0297 15.9141H12.3453C12.051 15.9141 11.8125 16.1526 11.8125 16.4469C11.8125 16.7411 12.051 16.9797 12.3453 16.9797H19.0297C19.324 16.9797 19.5625 16.7411 19.5625 16.4469Z" fill="#FF5001"/>
<path d="M17.625 19.3531C17.625 19.0589 17.3865 18.8203 17.0922 18.8203H12.3453C12.051 18.8203 11.8125 19.0589 11.8125 19.3531C11.8125 19.6474 12.051 19.8859 12.3453 19.8859H17.0922C17.3865 19.8859 17.625 19.6474 17.625 19.3531Z" fill="#FF5001"/>
<path d="M31.4103 33.0561C30.1897 33.71 28.7947 34.0781 27.3125 34.0781C22.4978 34.0781 18.5938 30.1741 18.5938 25.3594C18.5938 20.5447 22.4978 16.6406 27.3125 16.6406C32.1272 16.6406 36.0312 20.5447 36.0312 25.3594C36.0312 27.4713 35.2805 29.4088 34.0308 30.9152L36.0312 34.0781L31.4103 33.0561Z" fill="#013088"/>
<path d="M27.5547 30.6875C27.0219 30.6875 26.5859 30.2516 26.5859 29.7188C26.5859 29.1859 27.0219 28.75 27.5547 28.75C28.0875 28.75 28.5234 29.1859 28.5234 29.7188C28.5234 30.2516 28.0875 30.6875 27.5547 30.6875ZM27.5547 20.5156C29.0223 20.5156 30.2188 21.712 30.2188 23.1797C30.2188 24.3955 29.4002 25.4272 28.2812 25.742V27.5391H26.8281V25.1172C26.8281 24.7152 27.1527 24.3906 27.5547 24.3906C28.2231 24.3906 28.7656 23.8481 28.7656 23.1797C28.7656 22.5113 28.2231 21.9688 27.5547 21.9688C26.8863 21.9688 26.3438 22.5113 26.3438 23.1797H24.8906C24.8906 21.712 26.087 20.5156 27.5547 20.5156Z" fill="white"/>
</svg>
