<svg width="14" height="14" viewBox="0 0 14 14" fill="none" xmlns="http://www.w3.org/2000/svg">
<path fill-rule="evenodd" clip-rule="evenodd" d="M13.7482 7.04499C13.7482 10.7476 10.7466 13.7492 7.04401 13.7492C3.3414 13.7492 0.339844 10.7476 0.339844 7.04499C0.339844 3.34238 3.3414 0.34082 7.04401 0.34082C10.7466 0.34082 13.7482 3.34238 13.7482 7.04499ZM9.74599 5.0134C9.94235 5.20976 9.94235 5.52813 9.74599 5.72447L6.39391 9.07655C6.19754 9.27291 5.87923 9.27291 5.68284 9.07655L4.34201 7.73572C4.14565 7.53935 4.14565 7.22104 4.34201 7.02467C4.53837 6.82831 4.85673 6.82831 5.05309 7.02467L6.03838 8.00992L7.53663 6.51167L9.03494 5.0134C9.23131 4.81704 9.54962 4.81704 9.74599 5.0134Z" fill="#FF5001"/>
</svg>
