<svg width="40" height="40" viewBox="0 0 40 40" fill="none" xmlns="http://www.w3.org/2000/svg">
<path opacity="0.1" d="M33.6895 32.7878H5.70777C4.85302 32.7878 4.1604 32.0789 4.1604 31.2041V7.58168C4.1604 6.7069 4.85302 5.99805 5.70777 5.99805H33.6895C34.5443 5.99805 35.2369 6.7069 35.2369 7.58168V31.2041C35.2369 32.0785 34.5443 32.7878 33.6895 32.7878Z" fill="#FF5001"/>
<path opacity="0.1" d="M33.6895 5.99805H5.70777C4.85302 5.99805 4.1604 6.7073 4.1604 7.58168V10.6829H35.2369V7.58168C35.2369 6.7073 34.5443 5.99805 33.6895 5.99805Z" fill="#FF5001"/>
<path d="M7.57662 8.341C7.57662 8.74174 7.25904 9.06677 6.86747 9.06677C6.47591 9.06677 6.15833 8.74174 6.15833 8.341C6.15833 7.94026 6.47591 7.61523 6.86747 7.61523C7.25904 7.61483 7.57662 7.93986 7.57662 8.341Z" fill="#013088"/>
<path d="M10.2957 8.341C10.2957 8.74174 9.97815 9.06677 9.58659 9.06677C9.19502 9.06677 8.87744 8.74174 8.87744 8.341C8.87744 7.94026 9.19502 7.61523 9.58659 7.61523C9.97815 7.61523 10.2957 7.93986 10.2957 8.341Z" fill="#013088"/>
<path d="M12.9917 8.341C12.9917 8.74174 12.6741 9.06677 12.2825 9.06677C11.8909 9.06677 11.5734 8.74174 11.5734 8.341C11.5734 7.94026 11.8909 7.61523 12.2825 7.61523C12.6741 7.61523 12.9917 7.93986 12.9917 8.341Z" fill="#013088"/>
<path opacity="0.5" d="M16.6057 23.2637H18.3811C18.6344 23.2637 18.8397 23.4689 18.8397 23.7223V27.4773H16.1471V23.7223C16.1471 23.4689 16.3526 23.2637 16.6057 23.2637Z" fill="#FF5001"/>
<path d="M13.2155 19.4561H14.9908C15.244 19.4561 15.4494 19.6613 15.4494 19.9147V27.4769H12.7568V19.9147C12.7568 19.6615 12.9621 19.4561 13.2155 19.4561Z" fill="#013088"/>
<path opacity="0.5" d="M9.8252 20.3115H11.6005C11.8539 20.3115 12.0592 20.5168 12.0592 20.7701V27.4775H9.36658V20.7701C9.36658 20.5168 9.57204 20.3115 9.8252 20.3115Z" fill="#FF5001"/>
<path d="M6.43067 16.623H8.206C8.45916 16.623 8.66463 16.8283 8.66463 17.0817V27.4771H5.97205V17.0817C5.97205 16.8283 6.17728 16.623 6.43067 16.623Z" fill="#013088"/>
<path opacity="0.5" d="M23.8217 18.9882C24.2783 18.9882 24.6917 18.8032 24.991 18.5039L25.7236 19.2366C25.2368 19.7234 24.5645 20.0245 23.8217 20.0245C23.079 20.0245 22.4064 19.7234 21.9198 19.2366L22.6525 18.5039C22.9517 18.8032 23.3652 18.9882 23.8217 18.9882Z" fill="#FF5001"/>
<path d="M23.8217 15.6808C23.3652 15.6808 22.9517 15.8658 22.6525 16.1651L21.9198 15.4324C22.4066 14.9456 23.079 14.6445 23.8217 14.6445C24.5645 14.6445 25.237 14.9456 25.7236 15.4324L24.991 16.1651C24.6917 15.8658 24.2785 15.6808 23.8217 15.6808Z" fill="#013088"/>
<path d="M21.1261 17.3345C21.1261 16.5918 21.4272 15.9192 21.914 15.4326L22.6467 16.1653C22.3474 16.4645 22.1624 16.878 22.1624 17.3345C22.1624 17.7911 22.3474 18.2045 22.6467 18.5038L21.914 19.2364C21.4272 18.7498 21.1261 18.0773 21.1261 17.3345Z" fill="#013088"/>
<path d="M25.4693 17.3345C25.4693 16.878 25.2842 16.4645 24.985 16.1653L25.7176 15.4326C26.2045 15.9194 26.5056 16.5918 26.5056 17.3345C26.5056 18.0773 26.2045 18.7498 25.7176 19.2364L24.985 18.5038C25.2842 18.2045 25.4693 17.7911 25.4693 17.3345Z" fill="#013088"/>
<path opacity="0.5" d="M30.3073 18.9882C30.7639 18.9882 31.1773 18.8032 31.4766 18.5039L32.2092 19.2366C31.7224 19.7234 31.0501 20.0245 30.3073 20.0245C29.5646 20.0245 28.892 19.7234 28.4054 19.2366L29.138 18.5039C29.4373 18.8032 29.8505 18.9882 30.3073 18.9882Z" fill="#FF5001"/>
<path d="M30.3073 15.6808C29.8508 15.6808 29.4373 15.8658 29.138 16.1651L28.4054 15.4324C28.8922 14.9456 29.5646 14.6445 30.3073 14.6445C31.0501 14.6445 31.7226 14.9456 32.2092 15.4324L31.4766 16.1651C31.1773 15.8658 30.7639 15.6808 30.3073 15.6808Z" fill="#013088"/>
<path opacity="0.5" d="M27.6117 17.3345C27.6117 16.5918 27.9128 15.9192 28.3996 15.4326L29.1323 16.1653C28.833 16.4645 28.648 16.878 28.648 17.3345C28.648 17.7911 28.833 18.2045 29.1323 18.5038L28.3996 19.2364C27.9128 18.7498 27.6117 18.0773 27.6117 17.3345Z" fill="#FF5001"/>
<path d="M31.9549 17.3345C31.9549 16.878 31.7698 16.4645 31.4706 16.1653L32.2032 15.4326C32.6901 15.9194 32.9911 16.5918 32.9911 17.3345C32.9911 18.0773 32.6901 18.7498 32.2032 19.2364L31.4706 18.5038C31.7698 18.2045 31.9549 17.7911 31.9549 17.3345Z" fill="#013088"/>
<path opacity="0.5" d="M23.8217 25.2734C24.2783 25.2734 24.6917 25.0883 24.991 24.7891L25.7236 25.5217C25.2368 26.0085 24.5645 26.3096 23.8217 26.3096C23.079 26.3096 22.4064 26.0085 21.9198 25.5217L22.6525 24.7891C22.9517 25.0883 23.3652 25.2734 23.8217 25.2734Z" fill="#FF5001"/>
<path opacity="0.5" d="M23.8217 21.9659C23.3652 21.9659 22.9517 22.151 22.6525 22.4503L21.9198 21.7176C22.4066 21.2308 23.079 20.9297 23.8217 20.9297C24.5645 20.9297 25.237 21.2308 25.7236 21.7176L24.991 22.4503C24.6917 22.151 24.2785 21.9659 23.8217 21.9659Z" fill="#FF5001"/>
<path d="M21.1261 23.6197C21.1261 22.8769 21.4272 22.2044 21.914 21.7178L22.6467 22.4504C22.3474 22.7497 22.1624 23.1631 22.1624 23.6197C22.1624 24.0762 22.3474 24.4897 22.6467 24.7889L21.914 25.5216C21.4272 25.035 21.1261 24.3624 21.1261 23.6197Z" fill="#013088"/>
<path d="M25.4693 23.6197C25.4693 23.1631 25.2842 22.7497 24.985 22.4504L25.7176 21.7178C26.2045 22.2046 26.5056 22.8769 26.5056 23.6197C26.5056 24.3624 26.2045 25.035 25.7176 25.5216L24.985 24.7889C25.2842 24.4897 25.4693 24.0762 25.4693 23.6197Z" fill="#013088"/>
<path d="M30.3073 25.2734C30.7639 25.2734 31.1773 25.0883 31.4766 24.7891L32.2092 25.5217C31.7224 26.0085 31.0501 26.3096 30.3073 26.3096C29.5646 26.3096 28.892 26.0085 28.4054 25.5217L29.138 24.7891C29.4373 25.0883 29.8505 25.2734 30.3073 25.2734Z" fill="#013088"/>
<path d="M30.3073 21.9659C29.8508 21.9659 29.4373 22.151 29.138 22.4503L28.4054 21.7176C28.8922 21.2308 29.5646 20.9297 30.3073 20.9297C31.0501 20.9297 31.7226 21.2308 32.2092 21.7176L31.4766 22.4503C31.1773 22.151 30.7639 21.9659 30.3073 21.9659Z" fill="#013088"/>
<path d="M27.6117 23.6197C27.6117 22.8769 27.9128 22.2044 28.3996 21.7178L29.1323 22.4504C28.833 22.7497 28.648 23.1631 28.648 23.6197C28.648 24.0762 28.833 24.4897 29.1323 24.7889L28.3996 25.5216C27.9128 25.035 27.6117 24.3624 27.6117 23.6197Z" fill="#013088"/>
<path d="M31.9549 23.6197C31.9549 23.1631 31.7698 22.7497 31.4706 22.4504L32.2032 21.7178C32.6901 22.2046 32.9911 22.8769 32.9911 23.6197C32.9911 24.3624 32.6901 25.035 32.2032 25.5216L31.4706 24.7889C31.7698 24.4897 31.9549 24.0762 31.9549 23.6197Z" fill="#013088"/>
<path opacity="0.5" d="M30.9748 17.1578H29.6086C29.4818 17.1578 29.3793 17.0551 29.3793 16.9285C29.3793 16.802 29.4818 16.6992 29.6086 16.6992H30.9748C31.1016 16.6992 31.2041 16.802 31.2041 16.9285C31.2041 17.0551 31.1016 17.1578 30.9748 17.1578Z" fill="#FF5001"/>
<path opacity="0.5" d="M30.9748 18.1325H29.6086C29.4818 18.1325 29.3793 18.0297 29.3793 17.9031C29.3793 17.7766 29.4818 17.6738 29.6086 17.6738H30.9748C31.1016 17.6738 31.2041 17.7766 31.2041 17.9031C31.2041 18.0297 31.1016 18.1325 30.9748 18.1325Z" fill="#FF5001"/>
<path d="M10.2906 16.0331C10.4933 16.0331 10.6577 15.8687 10.6577 15.666C10.6577 15.4632 10.4933 15.2988 10.2906 15.2988C10.0878 15.2988 9.92346 15.4632 9.92346 15.666C9.92346 15.8687 10.0878 16.0331 10.2906 16.0331Z" fill="#013088"/>
<path opacity="0.5" d="M13.2532 15.8951H11.4274C11.3006 15.8951 11.1981 15.7924 11.1981 15.6658C11.1981 15.5393 11.3006 15.4365 11.4274 15.4365H13.2532C13.38 15.4365 13.4825 15.5393 13.4825 15.6658C13.4825 15.7924 13.38 15.8951 13.2532 15.8951Z" fill="#FF5001"/>
<path d="M10.2906 17.5409C10.4933 17.5409 10.6577 17.3765 10.6577 17.1738C10.6577 16.971 10.4933 16.8066 10.2906 16.8066C10.0878 16.8066 9.92346 16.971 9.92346 17.1738C9.92346 17.3765 10.0878 17.5409 10.2906 17.5409Z" fill="#013088"/>
<path opacity="0.5" d="M13.2532 17.403H11.4274C11.3006 17.403 11.1981 17.3002 11.1981 17.1736C11.1981 17.0471 11.3006 16.9443 11.4274 16.9443H13.2532C13.38 16.9443 13.4825 17.0471 13.4825 17.1736C13.4825 17.3002 13.38 17.403 13.2532 17.403Z" fill="#FF5001"/>
<path d="M17.147 17.5409C17.3498 17.5409 17.5142 17.3765 17.5142 17.1738C17.5142 16.971 17.3498 16.8066 17.147 16.8066C16.9443 16.8066 16.7799 16.971 16.7799 17.1738C16.7799 17.3765 16.9443 17.5409 17.147 17.5409Z" fill="#013088"/>
<path opacity="0.5" d="M20.1097 17.403H18.2839C18.1571 17.403 18.0546 17.3002 18.0546 17.1736C18.0546 17.0471 18.1571 16.9443 18.2839 16.9443H20.1097C20.2365 16.9443 20.339 17.0471 20.339 17.1736C20.339 17.3002 20.2365 17.403 20.1097 17.403Z" fill="#FF5001"/>
<path d="M17.1472 18.8153C17.3499 18.8153 17.5143 18.6509 17.5143 18.4482C17.5143 18.2454 17.3499 18.0811 17.1472 18.0811C16.9444 18.0811 16.78 18.2454 16.78 18.4482C16.78 18.6509 16.9444 18.8153 17.1472 18.8153Z" fill="#013088"/>
<path opacity="0.5" d="M20.1098 18.6774H18.284C18.1572 18.6774 18.0547 18.5746 18.0547 18.4481C18.0547 18.3215 18.1572 18.2188 18.284 18.2188H20.1098C20.2366 18.2188 20.3391 18.3215 20.3391 18.4481C20.3391 18.5746 20.2366 18.6774 20.1098 18.6774Z" fill="#FF5001"/>
<path d="M17.1472 20.0907C17.3499 20.0907 17.5143 19.9263 17.5143 19.7236C17.5143 19.5208 17.3499 19.3564 17.1472 19.3564C16.9444 19.3564 16.78 19.5208 16.78 19.7236C16.78 19.9263 16.9444 20.0907 17.1472 20.0907Z" fill="#013088"/>
<path opacity="0.5" d="M20.1098 19.9528H18.284C18.1572 19.9528 18.0547 19.85 18.0547 19.7235C18.0547 19.5969 18.1572 19.4941 18.284 19.4941H20.1098C20.2366 19.4941 20.3391 19.5969 20.3391 19.7235C20.3391 19.85 20.2366 19.9528 20.1098 19.9528Z" fill="#FF5001"/>
<path d="M17.1472 21.3651C17.3499 21.3651 17.5143 21.2007 17.5143 20.998C17.5143 20.7952 17.3499 20.6309 17.1472 20.6309C16.9444 20.6309 16.78 20.7952 16.78 20.998C16.78 21.2007 16.9444 21.3651 17.1472 21.3651Z" fill="#013088"/>
<path opacity="0.5" d="M20.1098 21.2272H18.284C18.1572 21.2272 18.0547 21.1244 18.0547 20.9979C18.0547 20.8713 18.1572 20.7686 18.284 20.7686H20.1098C20.2366 20.7686 20.3391 20.8713 20.3391 20.9979C20.3391 21.1244 20.2366 21.2272 20.1098 21.2272Z" fill="#FF5001"/>
<path opacity="0.5" d="M24.2921 24.3274H23.3343C23.2075 24.3274 23.105 24.2246 23.105 24.0981V23.1404C23.105 23.0139 23.2075 22.9111 23.3343 22.9111H24.2921C24.4189 22.9111 24.5214 23.0139 24.5214 23.1404V24.0981C24.5214 24.2246 24.4189 24.3274 24.2921 24.3274ZM23.5638 23.8687H24.063V23.3698H23.5638V23.8687Z" fill="#FF5001"/>
<path opacity="0.5" d="M30.2924 24.3627C29.8829 24.3627 29.5497 24.0295 29.5497 23.6197C29.5497 23.2101 29.8829 22.877 30.2924 22.877C30.7022 22.877 31.0354 23.2101 31.0354 23.6197C31.0356 24.0292 30.7022 24.3627 30.2924 24.3627ZM30.2924 23.3356C30.1356 23.3356 30.0083 23.4631 30.0083 23.6197C30.0083 23.7765 30.1358 23.904 30.2924 23.904C30.4493 23.904 30.5768 23.7765 30.5768 23.6197C30.577 23.4631 30.4493 23.3356 30.2924 23.3356Z" fill="#FF5001"/>
</svg>
