<svg width="40" height="40" viewBox="0 0 40 40" fill="none" xmlns="http://www.w3.org/2000/svg">
<path opacity="0.1" d="M26.7793 5.07907C26.8223 5.17234 26.8446 5.27384 26.8446 5.37656V9.88968V27.1256C26.8446 28.0503 26.0949 28.8 25.1702 28.8H6.30504C5.92053 28.7989 5.55208 28.6456 5.28019 28.3737C5.00829 28.1018 4.85503 27.7334 4.85388 27.3488V1.45116C4.85503 1.06664 5.00829 0.698202 5.28019 0.426304C5.55208 0.154407 5.92053 0.00114841 6.30504 1.41256e-08H21.468C21.5707 -2.04802e-05 21.6722 0.0222601 21.7655 0.0653024L26.7793 5.07907Z" fill="#FF5001"/>
<path opacity="0.2" d="M26.7776 5.0792H23.215C22.8304 5.07805 22.462 4.92479 22.1901 4.65289C21.9182 4.381 21.7649 4.01255 21.7638 3.62803V0.0654297C21.8414 0.101937 21.9125 0.150963 21.9742 0.210546L26.6324 4.86878C26.692 4.93049 26.7411 5.00158 26.7776 5.0792Z" fill="#FF5001"/>
<g opacity="0.1">
<path d="M23.0793 9.26379H8.64849C8.09423 9.26379 7.64453 8.81441 7.64453 8.25982C7.64453 7.70556 8.09391 7.25586 8.64849 7.25586H23.0793C23.6335 7.25586 24.0832 7.70524 24.0832 8.25982C24.0829 8.81441 23.6335 9.26379 23.0793 9.26379Z" fill="#FF5001"/>
<path d="M23.0793 14.0782H8.64849C8.09423 14.0782 7.64453 13.6289 7.64453 13.0743C7.64453 12.52 8.09391 12.0703 8.64849 12.0703H23.0793C23.6335 12.0703 24.0832 12.5197 24.0832 13.0743C24.0829 13.6289 23.6335 14.0782 23.0793 14.0782Z" fill="#FF5001"/>
<path d="M23.0793 18.8927H8.64849C8.09423 18.8927 7.64453 18.4433 7.64453 17.8887C7.64453 17.3341 8.09391 16.8848 8.64849 16.8848H23.0793C23.6335 16.8848 24.0832 17.3341 24.0832 17.8887C24.0829 18.4433 23.6335 18.8927 23.0793 18.8927Z" fill="#FF5001"/>
<path d="M23.0793 23.7071H8.64849C8.09423 23.7071 7.64453 23.2578 7.64453 22.7032C7.64453 22.1486 8.09391 21.6992 8.64849 21.6992H23.0793C23.6335 21.6992 24.0832 22.1486 24.0832 22.7032C24.0829 23.2578 23.6335 23.7071 23.0793 23.7071Z" fill="#FF5001"/>
</g>
<path d="M29.9789 26.3219L27.6133 28.6875L31.1856 32.2598L33.5512 29.8941L29.9789 26.3219Z" fill="#013088"/>
<path d="M28.2591 28.0339L27.6055 28.6875L31.1777 32.2598L31.8313 31.6062L28.2591 28.0339Z" fill="#013088"/>
<path d="M35.7557 37.572L31.2169 33.0333C30.6464 32.4628 30.6464 31.5376 31.2169 30.9671L32.2498 29.9342C32.8203 29.3637 33.7455 29.3637 34.316 29.9342L38.8548 34.473C39.4253 35.0435 39.4253 35.9687 38.8548 36.5392L37.8219 37.572C37.2514 38.1425 36.3266 38.1429 35.7557 37.572Z" fill="#FF5001"/>
<path d="M36.7186 36.6169L32.1798 32.0781C31.6093 31.5076 31.6093 30.5825 32.1798 30.012L32.2617 29.9302C32.2602 29.9316 32.2591 29.9327 32.2576 29.9342L31.2247 30.9671C30.6543 31.5376 30.6543 32.4627 31.2247 33.0332L35.7635 37.572C36.334 38.1425 37.2592 38.1425 37.8297 37.572L38.7808 36.6209C38.2095 37.1874 37.2877 37.1863 36.7186 36.6169Z" fill="#FF5001"/>
<path d="M36.7186 36.6169L32.1798 32.0781C31.6093 31.5076 31.6093 30.5825 32.1798 30.012L32.2617 29.9302C32.2602 29.9316 32.2591 29.9327 32.2576 29.9342L31.2247 30.9671C30.6543 31.5376 30.6543 32.4627 31.2247 33.0332L35.7635 37.572C36.334 38.1425 37.2592 38.1425 37.8297 37.572L38.7808 36.6209C38.2095 37.1874 37.2877 37.1863 36.7186 36.6169Z" fill="black" fill-opacity="0.2"/>
<path d="M21.8607 9C15.4699 9 10.2891 14.1808 10.2891 20.5717C10.2891 26.9625 15.4699 32.1433 21.8607 32.1433C28.2515 32.1433 33.4324 26.9625 33.4324 20.5717C33.4324 14.1808 28.2515 9 21.8607 9ZM21.8607 29.1629C17.1157 29.1629 13.2691 25.3163 13.2691 20.5712C13.2691 15.8262 17.1157 11.9796 21.8607 11.9796C26.6057 11.9796 30.4524 15.8262 30.4524 20.5712C30.4524 25.3167 26.6057 29.1629 21.8607 29.1629Z" fill="#013088"/>
<path d="M21.8604 10.6724C16.3931 10.6724 11.9609 15.1045 11.9609 20.5719C11.9609 26.0392 16.3931 30.4714 21.8604 30.4714C27.3278 30.4714 31.7599 26.0392 31.7599 20.5719C31.7599 15.1041 27.3282 10.6724 21.8604 10.6724ZM21.8604 29.1631C17.1154 29.1631 13.2688 25.3165 13.2688 20.5714C13.2688 15.8264 17.1154 11.9798 21.8604 11.9798C26.6055 11.9798 30.4521 15.8264 30.4521 20.5714C30.4521 25.3169 26.6055 29.1631 21.8604 29.1631Z" fill="#013088"/>
<path d="M17.0899 21.8759L20.0273 24.1593L25.3673 17.3667" stroke="#013088" stroke-width="1.5"/>
</svg>
