<svg width="40" height="40" viewBox="0 0 40 40" fill="none" xmlns="http://www.w3.org/2000/svg">
<path opacity="0.1" d="M31.6489 31.7862H5.75977C4.96894 31.7862 4.32812 31.1304 4.32812 30.321V8.4652C4.32812 7.65584 4.96894 7 5.75977 7H31.6489C32.4397 7 33.0805 7.65584 33.0805 8.4652V30.321C33.0805 31.13 32.4397 31.7862 31.6489 31.7862Z" fill="#FF5001"/>
<path opacity="0.1" d="M31.6489 7H5.75977C4.96894 7 4.32812 7.65621 4.32812 8.4652V11.3345H33.0805V8.4652C33.0805 7.65621 32.4397 7 31.6489 7Z" fill="#FF5001"/>
<path d="M7.488 9.16758C7.488 9.53836 7.19417 9.83907 6.83189 9.83907C6.46961 9.83907 6.17578 9.53836 6.17578 9.16758C6.17578 8.79681 6.46961 8.49609 6.83189 8.49609C7.19417 8.49572 7.488 8.79644 7.488 9.16758Z" fill="#013088"/>
<path d="M10.0036 9.16758C10.0036 9.53836 9.7098 9.83907 9.34752 9.83907C8.98524 9.83907 8.69141 9.53836 8.69141 9.16758C8.69141 8.79681 8.98524 8.49609 9.34752 8.49609C9.7098 8.49609 10.0036 8.79644 10.0036 9.16758Z" fill="#013088"/>
<path d="M12.4958 9.16758C12.4958 9.53836 12.202 9.83907 11.8397 9.83907C11.4774 9.83907 11.1836 9.53836 11.1836 9.16758C11.1836 8.79681 11.4774 8.49609 11.8397 8.49609C12.202 8.49609 12.4958 8.79644 12.4958 9.16758Z" fill="#013088"/>
<path d="M14.4306 20.7712C14.3908 20.8987 14.3191 21.0182 14.2181 21.1192L13.0496 22.2877L12.0563 23.2837C11.8811 23.4589 11.6553 23.5439 11.4268 23.5439C11.2011 23.5439 10.9726 23.4589 10.8001 23.2837C10.4521 22.9384 10.4521 22.3754 10.8001 22.0302L12.9646 19.8657C13.2781 19.5497 13.7666 19.5204 14.1146 19.7779C14.1518 19.8017 14.1863 19.8337 14.2181 19.8657C14.4651 20.1099 14.5368 20.4632 14.4306 20.7712Z" fill="#FF5001"/>
<path d="M13.5853 20.4864L11.421 22.6506C11.188 22.8836 11.1153 23.2131 11.1955 23.5099C11.2715 23.5304 11.3488 23.5446 11.427 23.5446C11.6543 23.5446 11.8815 23.4579 12.0548 23.2846L14.219 21.1204C14.452 20.8874 14.5248 20.5579 14.4445 20.2611C14.1478 20.1806 13.8183 20.2531 13.5853 20.4864Z" fill="#FF5001"/>
<path d="M9.74825 25.4552C9.12975 25.4552 8.62825 24.9537 8.62825 24.3352C8.62825 23.7167 9.12975 23.2152 9.74825 23.2152C10.3667 23.2152 10.8683 23.7167 10.8683 24.3352C10.8683 24.9537 10.3667 25.4552 9.74825 25.4552ZM9.74825 21.5869C8.2305 21.5869 7 22.8174 7 24.3352C7 25.8529 8.2305 27.0834 9.74825 27.0834C11.266 27.0834 12.4965 25.8529 12.4965 24.3352C12.4963 22.8174 11.266 21.5869 9.74825 21.5869Z" fill="#013088"/>
<path d="M19.6272 23.6294C19.4547 23.8022 19.2262 23.8897 19.0004 23.8897C18.7719 23.8897 18.5464 23.8022 18.3709 23.6294L17.0324 22.2882L15.8639 21.1197C15.7629 21.0187 15.6914 20.8992 15.6514 20.7717C15.5479 20.4637 15.6194 20.1104 15.8639 19.8662C15.8984 19.8317 15.9329 19.8024 15.9702 19.7759C16.3182 19.5209 16.8067 19.5529 17.1202 19.8662L19.6272 22.3732C19.9749 22.7184 19.9749 23.2814 19.6272 23.6294Z" fill="#FF5001"/>
<path d="M19.0057 23.8877C19.0872 23.8877 19.1677 23.8725 19.2467 23.8502C19.3312 23.551 19.2594 23.217 19.0239 22.9812L16.5162 20.4735C16.2807 20.238 15.9467 20.1665 15.6474 20.251C15.5629 20.5502 15.6347 20.8842 15.8702 21.12L18.3779 23.6277C18.5514 23.801 18.7784 23.8877 19.0057 23.8877Z" fill="#FF5001"/>
<path d="M22.1185 23.9413C21.8912 23.9413 21.664 23.8545 21.4907 23.6813C21.1437 23.3345 21.1437 22.7725 21.4907 22.4258L26.3635 17.553C26.7102 17.2063 27.2722 17.2063 27.619 17.553C27.9657 17.8998 27.9657 18.4618 27.619 18.8085L22.7462 23.6813C22.5727 23.8545 22.3457 23.9413 22.1185 23.9413Z" fill="#FF5001"/>
<path d="M26.9733 18.157L22.1006 23.0297C21.8638 23.2662 21.7928 23.6022 21.8791 23.9025C21.9593 23.9255 22.0413 23.9412 22.1241 23.9412C22.3513 23.9412 22.5786 23.8545 22.7518 23.6812L27.6246 18.8085C27.8613 18.572 27.9323 18.236 27.8461 17.9357C27.5458 17.8495 27.2098 17.9205 26.9733 18.157Z" fill="#FF5001"/>
<path d="M20.5881 21.8379C19.0703 21.8379 17.8398 23.0684 17.8398 24.5861C17.8398 26.1039 19.0703 27.3344 20.5881 27.3344C22.1058 27.3344 23.3363 26.1039 23.3363 24.5861C23.3363 23.0681 22.1058 21.8379 20.5881 21.8379ZM20.5881 25.7061C19.9696 25.7061 19.4681 25.2046 19.4681 24.5861C19.4681 23.9676 19.9696 23.4661 20.5881 23.4661C21.2066 23.4661 21.7081 23.9676 21.7081 24.5861C21.7081 25.2046 21.2066 25.7061 20.5881 25.7061Z" fill="#013088"/>
<path d="M17.121 19.8659C16.8075 19.5524 16.319 19.5206 15.971 19.7756C16.0375 19.8791 16.0877 19.9934 16.1197 20.1156C16.048 20.3891 15.8807 20.6204 15.6522 20.7716C15.692 20.8991 15.7637 21.0186 15.8647 21.1196L17.0332 22.2881C17.4715 21.8234 17.753 21.2099 17.7847 20.5299L17.121 19.8659ZM13.958 20.1154C13.99 19.9931 14.043 19.8791 14.1095 19.7781C13.7615 19.5204 13.273 19.5496 12.9595 19.8659L12.293 20.5324C12.3275 21.2096 12.6065 21.8259 13.0445 22.2879L14.213 21.1194C14.314 21.0184 14.3857 20.8989 14.4255 20.7714C14.1997 20.6201 14.0297 20.3889 13.958 20.1154Z" fill="#FF5001"/>
<path d="M15.0412 16.291C13.5235 16.291 12.293 17.5215 12.293 19.0393C12.293 20.557 13.5235 21.7875 15.0412 21.7875C16.559 21.7875 17.7895 20.557 17.7895 19.0393C17.7892 17.5215 16.559 16.291 15.0412 16.291ZM15.0412 20.1593C14.4227 20.1593 13.9212 19.6578 13.9212 19.0393C13.9212 18.4208 14.4227 17.9193 15.0412 17.9193C15.6597 17.9193 16.1612 18.4208 16.1612 19.0393C16.1612 19.658 15.6597 20.1593 15.0412 20.1593Z" fill="#013088"/>
<path d="M25.6875 18.2342C25.7193 18.9157 25.9975 19.5317 26.4375 19.9952L27.6248 18.8079C27.7193 18.7134 27.7858 18.6024 27.8288 18.4844C27.5958 18.3337 27.4205 18.1012 27.3488 17.8249C27.3828 17.6934 27.4415 17.5727 27.517 17.4644C27.1698 17.2117 26.6822 17.2392 26.369 17.5524L25.6875 18.2342Z" fill="#FF5001"/>
<path d="M28.4277 14C26.9099 14 25.6797 15.2305 25.6797 16.7482C25.6797 18.266 26.9099 19.4965 28.4277 19.4965C29.9454 19.4965 31.1759 18.266 31.1759 16.7482C31.1759 15.2305 29.9457 14 28.4277 14ZM28.4277 17.8683C27.8092 17.8683 27.3077 17.3667 27.3077 16.7482C27.3077 16.1297 27.8092 15.6283 28.4277 15.6283C29.0462 15.6283 29.5477 16.1297 29.5477 16.7482C29.5479 17.3667 29.0464 17.8683 28.4277 17.8683Z" fill="#013088"/>
<path d="M33.0385 20.1543L31.6517 21.541L33.7458 23.6351L35.1326 22.2483L33.0385 20.1543Z" fill="#013088"/>
<path d="M32.0351 21.1579L31.652 21.541L33.7461 23.6351L34.1292 23.252L32.0351 21.1579Z" fill="#013088"/>
<path d="M36.427 26.7496L33.7663 24.089C33.4319 23.7545 33.4319 23.2122 33.7663 22.8778L34.3718 22.2723C34.7062 21.9379 35.2486 21.9379 35.583 22.2723L38.2437 24.933C38.5781 25.2674 38.5781 25.8097 38.2437 26.1441L37.6382 26.7496C37.3037 27.0841 36.7616 27.0843 36.427 26.7496Z" fill="#FF5001"/>
<path d="M36.9952 26.1893L34.3345 23.5287C34.0001 23.1942 34.0001 22.6519 34.3345 22.3175L34.3825 22.2695C34.3816 22.2704 34.381 22.271 34.3801 22.2719L33.7746 22.8774C33.4402 23.2118 33.4402 23.7541 33.7746 24.0886L36.4353 26.7492C36.7697 27.0836 37.312 27.0836 37.6465 26.7492L38.204 26.1917C37.8691 26.5238 37.3287 26.5231 36.9952 26.1893Z" fill="#FF5001"/>
<path d="M36.9952 26.1893L34.3345 23.5287C34.0001 23.1942 34.0001 22.6519 34.3345 22.3175L34.3825 22.2695C34.3816 22.2704 34.381 22.271 34.3801 22.2719L33.7746 22.8774C33.4402 23.2118 33.4402 23.7541 33.7746 24.0886L36.4353 26.7492C36.7697 27.0836 37.312 27.0836 37.6465 26.7492L38.204 26.1917C37.8691 26.5238 37.3287 26.5231 36.9952 26.1893Z" fill="black" fill-opacity="0.2"/>
<path d="M28.2834 10C24.537 10 21.5 13.037 21.5 16.7834C21.5 20.5297 24.537 23.5667 28.2834 23.5667C32.0297 23.5667 35.0667 20.5297 35.0667 16.7834C35.0667 13.037 32.0297 10 28.2834 10ZM28.2834 21.8196C25.5018 21.8196 23.2469 19.5647 23.2469 16.7831C23.2469 14.0016 25.5018 11.7467 28.2834 11.7467C31.0649 11.7467 33.3198 14.0016 33.3198 16.7831C33.3198 19.5649 31.0649 21.8196 28.2834 21.8196Z" fill="#013088"/>
<path d="M28.2786 10.9805C25.0736 10.9805 22.4755 13.5786 22.4755 16.7836C22.4755 19.9886 25.0736 22.5867 28.2786 22.5867C31.4836 22.5867 34.0817 19.9886 34.0817 16.7836C34.0817 13.5784 31.4838 10.9805 28.2786 10.9805ZM28.2786 21.8198C25.497 21.8198 23.2421 19.5649 23.2421 16.7834C23.2421 14.0018 25.497 11.7469 28.2786 11.7469C31.0601 11.7469 33.3151 14.0018 33.3151 16.7834C33.3151 19.5652 31.0601 21.8198 28.2786 21.8198Z" fill="#013088"/>
</svg>
