<svg width="40" height="40" viewBox="0 0 40 40" fill="none" xmlns="http://www.w3.org/2000/svg">
<path opacity="0.1" d="M29.7498 36H7.25022C6.00781 36 5 34.9536 5 33.6621V5.33794C5 4.0471 6.00714 3 7.25022 3H29.7498C30.9922 3 32 4.0464 32 5.33794V33.6621C31.9993 34.9536 30.9922 36 29.7498 36Z" fill="#013088"/>
<path opacity="0.2" d="M28.137 24.7162H15.7165C15.2386 24.7162 14.8516 24.3288 14.8516 23.8512C14.8516 23.3734 15.2389 22.9863 15.7165 22.9863H28.137C28.6148 22.9863 29.0019 23.3737 29.0019 23.8512C29.0022 24.3291 28.6148 24.7162 28.137 24.7162Z" fill="#013088"/>
<path opacity="0.2" d="M11.4937 26.2059H9.21519C8.5441 26.2059 8 25.6618 8 24.9907V22.7123C8 22.0412 8.5441 21.4971 9.21519 21.4971H11.4937C12.1648 21.4971 12.7089 22.0412 12.7089 22.7123V24.9907C12.7089 25.6618 12.1651 26.2059 11.4937 26.2059Z" fill="#013088"/>
<path d="M10.4093 25.2838C10.2537 25.2838 10.0985 25.2246 9.97972 25.1058L8.65061 23.7767C8.41334 23.5394 8.41334 23.1548 8.65061 22.9175C8.88787 22.6802 9.27248 22.6802 9.50975 22.9175L10.4093 23.8168L12.3721 21.8542C12.6094 21.617 12.994 21.617 13.2313 21.8542C13.4685 22.0915 13.4685 22.4761 13.2313 22.7134L10.8389 25.1058C10.7201 25.2246 10.5645 25.2838 10.4093 25.2838Z" fill="url(#paint0_linear_8901_597)"/>
<path d="M13.2259 22.1058L10.8334 24.4982C10.7147 24.6169 10.5594 24.6762 10.4039 24.6762C10.2483 24.6762 10.0931 24.6169 9.9743 24.4982L8.64519 23.169C8.60691 23.1308 8.57714 23.0879 8.55131 23.0433C8.41643 23.2757 8.4462 23.5777 8.64519 23.7766L9.9743 25.1058C10.0931 25.2245 10.2483 25.2838 10.4039 25.2838C10.5594 25.2838 10.7147 25.2245 10.8334 25.1058L13.2259 22.7133C13.4248 22.5144 13.4546 22.2124 13.3197 21.98C13.2939 22.0246 13.2641 22.0678 13.2259 22.1058Z" fill="url(#paint1_linear_8901_597)"/>
<path opacity="0.2" d="M28.137 31.4251H15.7165C15.2386 31.4251 14.8516 31.0378 14.8516 30.5602C14.8516 30.0824 15.2389 29.6953 15.7165 29.6953H28.137C28.6148 29.6953 29.0019 30.0827 29.0019 30.5602C29.0022 31.0381 28.6148 31.4251 28.137 31.4251Z" fill="#013088"/>
<path opacity="0.2" d="M11.4937 32.9149H9.21519C8.5441 32.9149 8 32.3708 8 31.6997V29.4212C8 28.7502 8.5441 28.2061 9.21519 28.2061H11.4937C12.1648 28.2061 12.7089 28.7502 12.7089 29.4212V31.6997C12.7089 32.3708 12.1651 32.9149 11.4937 32.9149Z" fill="#013088"/>
<path d="M10.4093 31.9928C10.2537 31.9928 10.0985 31.9335 9.97972 31.8148L8.65061 30.4856C8.41334 30.2484 8.41334 29.8638 8.65061 29.6265C8.88787 29.3892 9.27248 29.3892 9.50975 29.6265L10.4093 30.5257L12.3721 28.5632C12.6094 28.3259 12.994 28.3259 13.2313 28.5632C13.4685 28.8005 13.4685 29.1851 13.2313 29.4223L10.8389 31.8148C10.7201 31.9335 10.5645 31.9928 10.4093 31.9928Z" fill="url(#paint2_linear_8901_597)"/>
<path d="M13.2259 28.8147L10.8334 31.2071C10.7147 31.3259 10.5594 31.3852 10.4039 31.3852C10.2483 31.3852 10.0931 31.3259 9.9743 31.2071L8.64519 29.878C8.60691 29.8398 8.57714 29.7969 8.55131 29.7523C8.41643 29.9847 8.4462 30.2866 8.64519 30.4856L9.9743 31.8147C10.0931 31.9335 10.2483 31.9928 10.4039 31.9928C10.5594 31.9928 10.7147 31.9335 10.8334 31.8147L13.2259 29.4223C13.4248 29.2233 13.4546 28.9214 13.3197 28.689C13.2939 28.7336 13.2641 28.7768 13.2259 28.8147Z" fill="url(#paint3_linear_8901_597)"/>
<path d="M18.625 19.6866C22.8039 19.6866 26.1915 16.299 26.1915 12.1201C26.1915 7.94132 22.8039 4.55371 18.625 4.55371C14.4462 4.55371 11.0586 7.94132 11.0586 12.1201C11.0586 16.299 14.4462 19.6866 18.625 19.6866Z" fill="url(#paint4_linear_8901_597)"/>
<path d="M26.0809 10.8482C25.7604 8.95861 24.7439 7.30913 23.2984 6.17285L18.6289 12.1188L26.0809 10.8482Z" fill="#FEDE3A"/>
<path d="M26.0695 10.8477L18.6182 12.1182L16.6602 19.4194C17.2859 19.5872 17.9399 19.6846 18.6182 19.6846C22.7969 19.6846 26.1847 16.2968 26.1847 12.1182C26.1847 11.6839 26.1399 11.2615 26.0695 10.8477Z" fill="url(#paint5_linear_8901_597)"/>
<path d="M31.5807 30.9462L29.9492 32.5776L32.4129 35.0413L34.0443 33.4098L31.5807 30.9462Z" fill="#013088"/>
<path d="M30.3931 32.1269L29.9424 32.5776L32.406 35.0413L32.8568 34.5905L30.3931 32.1269Z" fill="#013088"/>
<path d="M35.5632 38.7046L32.433 35.5744C32.0396 35.181 32.0396 34.543 32.433 34.1495L33.1454 33.4372C33.5388 33.0437 34.1768 33.0437 34.5703 33.4372L37.7005 36.5674C38.0939 36.9608 38.0939 37.5989 37.7005 37.9923L36.9882 38.7046C36.5947 39.0981 35.9569 39.0983 35.5632 38.7046Z" fill="#FF5001"/>
<path d="M36.2273 38.0461L33.0971 34.9159C32.7036 34.5225 32.7036 33.8844 33.0971 33.491L33.1535 33.4346C33.1525 33.4356 33.1517 33.4363 33.1507 33.4373L32.4384 34.1497C32.0449 34.5431 32.0449 35.1812 32.4384 35.5746L35.5686 38.7048C35.962 39.0983 36.6001 39.0983 36.9935 38.7048L37.6494 38.0489C37.2555 38.4396 36.6197 38.4388 36.2273 38.0461Z" fill="#FF5001"/>
<path d="M36.2273 38.0461L33.0971 34.9159C32.7036 34.5225 32.7036 33.8844 33.0971 33.491L33.1535 33.4346C33.1525 33.4356 33.1517 33.4363 33.1507 33.4373L32.4384 34.1497C32.0449 34.5431 32.0449 35.1812 32.4384 35.5746L35.5686 38.7048C35.962 39.0983 36.6001 39.0983 36.9935 38.7048L37.6494 38.0489C37.2555 38.4396 36.6197 38.4388 36.2273 38.0461Z" fill="black" fill-opacity="0.2"/>
<path d="M25.9804 19C21.573 19 18 22.573 18 26.9805C18 31.3879 21.573 34.9609 25.9804 34.9609C30.3879 34.9609 33.9609 31.3879 33.9609 26.9805C33.9609 22.573 30.3879 19 25.9804 19ZM25.9804 32.9054C22.708 32.9054 20.0552 30.2526 20.0552 26.9802C20.0552 23.7077 22.708 21.0549 25.9804 21.0549C29.2529 21.0549 31.9057 23.7077 31.9057 26.9802C31.9057 30.2529 29.2529 32.9054 25.9804 32.9054Z" fill="#013088"/>
<path d="M25.9803 20.1533C22.2097 20.1533 19.1531 23.21 19.1531 26.9806C19.1531 30.7511 22.2097 33.8078 25.9803 33.8078C29.7509 33.8078 32.8076 30.7511 32.8076 26.9806C32.8076 23.2097 29.7512 20.1533 25.9803 20.1533ZM25.9803 32.9055C22.7079 32.9055 20.055 30.2527 20.055 26.9803C20.055 23.7078 22.7079 21.055 25.9803 21.055C29.2527 21.055 31.9056 23.7078 31.9056 26.9803C31.9056 30.253 29.2527 32.9055 25.9803 32.9055Z" fill="#013088"/>
<defs>
<linearGradient id="paint0_linear_8901_597" x1="10.9409" y1="21.6763" x2="10.9409" y2="25.2838" gradientUnits="userSpaceOnUse">
<stop stop-color="#FF7233"/>
<stop offset="1" stop-color="#FF5001"/>
</linearGradient>
<linearGradient id="paint1_linear_8901_597" x1="10.9355" y1="21.98" x2="10.9355" y2="25.2838" gradientUnits="userSpaceOnUse">
<stop stop-color="#FF7233"/>
<stop offset="1" stop-color="#FF5001"/>
</linearGradient>
<linearGradient id="paint2_linear_8901_597" x1="10.9409" y1="28.3853" x2="10.9409" y2="31.9928" gradientUnits="userSpaceOnUse">
<stop stop-color="#FF7233"/>
<stop offset="1" stop-color="#FF5001"/>
</linearGradient>
<linearGradient id="paint3_linear_8901_597" x1="10.9355" y1="28.689" x2="10.9355" y2="31.9928" gradientUnits="userSpaceOnUse">
<stop stop-color="#FF7233"/>
<stop offset="1" stop-color="#FF5001"/>
</linearGradient>
<linearGradient id="paint4_linear_8901_597" x1="18.625" y1="4.55371" x2="18.625" y2="19.6866" gradientUnits="userSpaceOnUse">
<stop stop-color="#0142BB"/>
<stop offset="1" stop-color="#013088"/>
</linearGradient>
<linearGradient id="paint5_linear_8901_597" x1="21.4224" y1="10.8477" x2="21.4224" y2="19.6846" gradientUnits="userSpaceOnUse">
<stop stop-color="#FF7233"/>
<stop offset="1" stop-color="#FF5001"/>
</linearGradient>
</defs>
</svg>
