<svg width="40" height="40" viewBox="0 0 40 40" fill="none" xmlns="http://www.w3.org/2000/svg">
<circle opacity="0.1" cx="15" cy="13.3337" r="11.6667" fill="#FF5001"/>
<path opacity="0.2" d="M28.8647 33.139H12.4738C11.5686 33.139 10.8346 32.4053 10.8346 31.4999V11.6392C10.8346 10.734 11.5686 10 12.4738 10H28.8647C29.7699 10 30.5039 10.7337 30.5039 11.6392V31.4996C30.5039 32.405 29.7702 33.139 28.8647 33.139Z" fill="#013088"/>
<g opacity="0.2">
<path d="M27.0983 21.4663H14.2439C13.7502 21.4663 13.3496 21.066 13.3496 20.572C13.3496 20.0783 13.7499 19.6777 14.2439 19.6777H27.0983C27.592 19.6777 27.9926 20.078 27.9926 20.572C27.9923 21.066 27.592 21.4663 27.0983 21.4663Z" fill="#013088"/>
<path d="M27.0983 25.5991H14.2439C13.7502 25.5991 13.3496 25.1988 13.3496 24.7048C13.3496 24.2108 13.7499 23.8105 14.2439 23.8105H27.0983C27.592 23.8105 27.9926 24.2108 27.9926 24.7048C27.9923 25.1988 27.592 25.5991 27.0983 25.5991Z" fill="#013088"/>
<path d="M27.0983 29.731H14.2439C13.7502 29.731 13.3496 29.3307 13.3496 28.8367C13.3496 28.3427 13.7499 27.9424 14.2439 27.9424H27.0983C27.592 27.9424 27.9926 28.3427 27.9926 28.8367C27.9923 29.3307 27.592 29.731 27.0983 29.731Z" fill="#013088"/>
<path d="M27.3336 12.4316H14.002C13.64 12.4316 13.3463 12.7251 13.3463 13.0874V16.3111C13.3463 16.6731 13.6397 16.9668 14.002 16.9668H27.3336C27.6956 16.9668 27.9893 16.6734 27.9893 16.3111V13.0874C27.989 12.7254 27.6956 12.4316 27.3336 12.4316Z" fill="#013088"/>
</g>
<path d="M30.2382 30.2806L28.6067 31.9121L31.0703 34.3757L32.7018 32.7443L30.2382 30.2806Z" fill="#013088"/>
<path d="M29.0568 31.4604L28.6061 31.9111L31.0697 34.3748L31.5205 33.924L29.0568 31.4604Z" fill="#013088"/>
<path d="M34.2247 38.0391L31.0945 34.9089C30.7011 34.5155 30.7011 33.8774 31.0945 33.484L31.8069 32.7716C32.2003 32.3782 32.8383 32.3782 33.2318 32.7716L36.362 35.9018C36.7554 36.2953 36.7554 36.9333 36.362 37.3267L35.6496 38.0391C35.2562 38.4325 34.6184 38.4328 34.2247 38.0391Z" fill="#FF5001"/>
<path d="M34.8938 37.3801L31.7636 34.2499C31.3701 33.8564 31.3701 33.2184 31.7636 32.825L31.82 32.7686C31.819 32.7696 31.8182 32.7703 31.8172 32.7713L31.1049 33.4837C30.7115 33.8771 30.7115 34.5151 31.1049 34.9086L34.2351 38.0388C34.6285 38.4322 35.2666 38.4322 35.66 38.0388L36.3159 37.3828C35.922 37.7735 35.2862 37.7728 34.8938 37.3801Z" fill="#FF5001"/>
<path d="M34.8938 37.3801L31.7636 34.2499C31.3701 33.8564 31.3701 33.2184 31.7636 32.825L31.82 32.7686C31.819 32.7696 31.8182 32.7703 31.8172 32.7713L31.1049 33.4837C30.7115 33.8771 30.7115 34.5151 31.1049 34.9086L34.2351 38.0388C34.6285 38.4322 35.2666 38.4322 35.66 38.0388L36.3159 37.3828C35.922 37.7735 35.2862 37.7728 34.8938 37.3801Z" fill="black" fill-opacity="0.2"/>
<path d="M24.6431 18.334C20.2357 18.334 16.6627 21.907 16.6627 26.3144C16.6627 30.7218 20.2357 34.2948 24.6431 34.2948C29.0506 34.2948 32.6235 30.7218 32.6235 26.3144C32.6235 21.907 29.0506 18.334 24.6431 18.334ZM24.6431 32.2393C21.3707 32.2393 18.7179 29.5865 18.7179 26.3141C18.7179 23.0417 21.3707 20.3889 24.6431 20.3889C27.9155 20.3889 30.5684 23.0417 30.5684 26.3141C30.5684 29.5868 27.9155 32.2393 24.6431 32.2393Z" fill="#013088"/>
<path d="M24.639 19.4873C20.8684 19.4873 17.8118 22.544 17.8118 26.3145C17.8118 30.0851 20.8684 33.1417 24.639 33.1417C28.4095 33.1417 31.4662 30.0851 31.4662 26.3145C31.4662 22.5437 28.4098 19.4873 24.639 19.4873ZM24.639 32.2394C21.3666 32.2394 18.7137 29.5866 18.7137 26.3142C18.7137 23.0418 21.3666 20.389 24.639 20.389C27.9114 20.389 30.5642 23.0418 30.5642 26.3142C30.5642 29.5869 27.9114 32.2394 24.639 32.2394Z" fill="#013088"/>
</svg>
